<svg width="48" height="48" viewBox="0 0 48 48" fill="none" xmlns="http://www.w3.org/2000/svg">
<g clip-path="url(#clip0_30_274)">
<path d="M34.6859 23.5869C34.729 17.6408 29.9893 12.6426 24.0001 12.3841C21.5441 12.2548 19.2174 12.9873 17.3215 14.2368C15.4257 12.9873 13.0989 12.2548 10.6429 12.3841C4.73993 12.5995 -0.0427988 17.5977 0.000288864 23.5869C0.000288864 25.4827 0.991305 29.0159 3.53348 30.3516C3.4473 32.3337 3.05951 39.0123 7.28211 43.7088C8.96253 45.6047 11.9356 45.6478 13.6591 43.795C14.3054 43.1056 14.8655 42.1577 15.1241 40.9512C15.4257 39.7017 15.7273 37.8489 15.9858 35.8669C16.2013 34.3157 18.4418 34.3157 18.6573 35.8669C18.9589 37.8058 19.2605 39.6586 19.519 40.9512C19.7775 42.2007 20.3377 43.1056 20.984 43.795C22.7075 45.6478 25.6805 45.6047 27.361 43.7088C31.5836 39.0553 31.1958 32.3337 31.1096 30.3516C33.6087 29.1452 34.6859 25.4827 34.6859 23.5869ZM6.9374 17.4253C6.11874 18.1147 5.42934 18.9334 4.8692 19.8813C4.09362 21.2601 3.66274 22.8113 3.66274 24.3624C3.66274 24.8364 3.27495 25.2242 2.7579 25.2242C2.24085 25.2242 1.85306 24.8364 1.85306 24.3194C1.85306 22.4666 2.37011 20.5707 3.27495 18.9765C3.92127 17.8562 4.73993 16.8652 5.73095 16.0034C6.11874 15.7018 6.67888 15.7449 6.98049 16.1327C7.36828 16.5636 7.32519 17.1237 6.9374 17.4253ZM8.87635 16.0465L8.704 16.1327C8.57474 16.2189 8.44547 16.2189 8.27312 16.2189C7.97151 16.2189 7.62681 16.0465 7.49754 15.7449C7.28211 15.314 7.45446 14.7539 7.88533 14.5385L8.05768 14.4523C8.48856 14.2368 9.0487 14.4092 9.26414 14.8401C9.47958 15.2709 9.30723 15.8311 8.87635 16.0465Z" fill="#516EFF"/>
<path d="M26.37 2C19.3036 2 13.0128 5.40393 9.0918 10.6175C9.56576 10.5314 10.0828 10.4883 10.5999 10.4452C10.7722 10.4452 10.9877 10.4452 11.16 10.4452C11.6771 10.4452 12.1941 10.4883 12.7112 10.5314C12.7973 10.4452 12.9266 10.3159 13.0128 10.2297C16.5891 6.65347 21.3287 4.71452 26.37 4.71452C28.3951 4.71452 30.3771 5.01614 32.273 5.66245C32.6177 5.66245 34.729 5.66245 34.729 5.66245C34.729 5.66245 34.729 3.76659 34.729 3.68042C32.1868 2.60323 29.343 2 26.37 2Z" fill="#516EFF"/>
<path d="M46.1472 14.8401C45.3716 14.8401 44.0359 14.8401 44.0359 14.8401C44.0359 14.8401 44.0359 16.6498 44.0359 16.9083C44.8114 19.0196 45.2423 21.2602 45.2423 23.5438C45.2423 28.5851 43.2603 33.3247 39.7271 36.901C37.2711 39.357 34.2119 41.0805 30.9372 41.8561C30.3771 42.9333 29.6877 43.9674 28.7828 44.9153C28.7397 44.9584 28.6967 45.0015 28.6967 45.0446C39.5548 43.8812 47.9999 34.7035 47.9999 23.5869C47.9568 20.4846 47.3105 17.5116 46.1472 14.8401Z" fill="#516EFF"/>
<path d="M45.6301 7.42905H42.1831V3.98203C42.1831 3.33572 41.666 2.81866 41.0197 2.81866H37.7451C37.0987 2.81866 36.5817 3.33572 36.5817 3.98203V7.42905H33.1347C32.4884 7.42905 31.9713 7.9461 31.9713 8.59241V11.8671C31.9713 12.5134 32.4884 13.0304 33.1347 13.0304H36.5817V16.4775C36.5817 17.1238 37.0987 17.6408 37.7451 17.6408H41.0197C41.666 17.6408 42.1831 17.1238 42.1831 16.4775V13.0304H45.6301C46.2764 13.0304 46.7935 12.5134 46.7935 11.8671V8.59241C46.7935 7.9461 46.2764 7.42905 45.6301 7.42905ZM38.4345 6.95508C38.4345 7.2567 38.219 7.47213 37.9174 7.47213C37.6158 7.47213 37.4004 7.2567 37.4004 6.95508V5.70554C37.4004 5.40393 37.6158 5.18849 37.9174 5.18849C38.219 5.18849 38.4345 5.40393 38.4345 5.70554V6.95508ZM38.4345 4.19747C38.4345 4.456 38.219 4.71452 37.9174 4.71452C37.6158 4.71452 37.4004 4.49908 37.4004 4.19747V4.06821C37.4004 3.76659 37.6158 3.55116 37.9174 3.55116C38.219 3.55116 38.4345 3.76659 38.4345 4.06821V4.19747Z" fill="#516EFF"/>
</g>
<defs>
<clipPath id="clip0_30_274">
<rect width="48" height="48" fill="white"/>
</clipPath>
</defs>
</svg>
